<?xml version="1.0" encoding="utf-8"?>
<!-- Generator: Adobe Illustrator 24.0.2, SVG Export Plug-In . SVG Version: 6.00 Build 0)  -->
<svg version="1.1" xmlns="http://www.w3.org/2000/svg" xmlns:xlink="http://www.w3.org/1999/xlink" x="0px" y="0px"
	 viewBox="0 0 3710 3710" style="enable-background:new 0 0 3710 3710;" xml:space="preserve">
<style type="text/css">
	.st0{opacity:0.32;fill:#D3D2FF;}
	.st1{fill:#29138B;}
	.st2{fill:#4A2FBD;}
	.st3{opacity:0.32;fill:#FFFFFF;}
	.st4{opacity:0.12;fill:#FFFFFF;}
	.st5{fill:#87D60B;}
	.st6{fill:#96FF00;}
	.st7{clip-path:url(#SVGID_2_);}
	.st8{fill:#715DED;}
	.st9{fill:#D7D4F9;}
	.st10{fill:#FFFFFF;}
	.st11{fill:#8575E0;}
	.st12{fill:#BDD0FB;}
	.st13{clip-path:url(#SVGID_4_);}
</style>
<g id="Background">
</g>
<g id="Illustration">
	<g>
		<path class="st0" d="M2915.89,3094.71c-82.8,85.41-156.88,135.61-213.61,173.52c-553.2,369.65-1185.57,263.11-1381.09,226.69
			c-315.44-58.75-581.71-100.2-810.48-307.04c-519.85-470-494.56-1450.46-97.34-2057.81c47.1-72.01,443.72-660.36,1077.46-743.27
			c15.5-2.03,27.07-3.18,37.2-4.26c98.04-10.39,705.56-65.21,1200.93,350.11c70.91,59.45,185.03,166.69,290.85,330.24
			C3406.75,1660.91,3407.97,2587.12,2915.89,3094.71z"/>
		<g>
			<g>
				<path class="st1" d="M3454.72,3453.05c0,31.98-26.19,58.14-58.19,58.14H249.68c-32.01,0-58.19-26.16-58.19-58.14l-26.18-1808.4
					c0-31.98,37.67-94.4,106.71-89.71l3075.44-79.58c40.16-1.04,78.99,14.42,107.42,42.76c28.44,28.35,44,67.1,43.05,107.22
					L3454.72,3453.05z"/>
				<path class="st2" d="M3397.26,3397.27c0,30.28-24.77,55.05-55.05,55.05H325.57c-30.28,0-55.05-24.77-55.05-55.05l-24.71-1641.68
					c2.91-98.79,89.52-134.3,142.03-132.2l2947.62-79.08c28.21-0.76,55.5,10.11,75.47,30.04c19.97,19.94,30.88,47.21,30.18,75.42
					L3397.26,3397.27z"/>
				<g>
					<path class="st3" d="M303.12,2614.48c-2.83,0-5.15-2.28-5.19-5.12l-1.96-133.14c-0.04-2.87,2.25-5.23,5.12-5.27
						c2.77-0.15,5.23,2.25,5.27,5.12l1.96,133.14c0.04,2.87-2.25,5.23-5.12,5.27C303.17,2614.48,303.14,2614.48,303.12,2614.48z"/>
					<path class="st3" d="M298.32,2288.22c-2.83,0-5.15-2.28-5.19-5.12l-7.49-509.92c0.16-34.28,10.72-61.67,31.41-81.49
						c37.59-36.02,96.37-34.21,98.85-34.11l941.23-25.26c2.84-0.26,5.25,2.18,5.33,5.05c0.08,2.87-2.19,5.26-5.05,5.33
						l-941.53,25.26c-2.68-0.11-57.19-1.78-91.64,31.23c-18.58,17.8-28.07,42.68-28.21,73.93l7.49,509.82
						c0.04,2.87-2.25,5.23-5.12,5.27C298.38,2288.22,298.35,2288.22,298.32,2288.22z"/>
				</g>
				<path class="st4" d="M403.42,3306.2c3.16-135.69,1.98-1337.23-5.8-1441c-7.79-103.77,153.83-123.23,401.96-134.91
					c248.13-11.68,2341.7-57.91,2395.6-62.28c121.17-9.82,146.25,171.28,134.12,564.45c-9.11,295.38-24.2,781.97-31.15,1005.75
					c-2.07,66.63-56.53,119.5-123.19,119.68c-503.8,1.38-2434.71,6.92-2563.25,10.75C463.79,3373.03,402.16,3360,403.42,3306.2z"/>
			</g>
			<path class="st1" d="M3630.55,3661.3H79.45c-43.7,0-79.45-35.75-79.45-79.45l0,0c0-43.7,35.75-79.45,79.45-79.45h3551.11
				c43.7,0,79.45,35.75,79.45,79.45l0,0C3710,3625.55,3674.25,3661.3,3630.55,3661.3z"/>
		</g>
		<g>
			<g>
				<g>
					<path class="st5" d="M1808.6,1045.72L727.34,1939.61c20.99,10.11,44.78,15.31,69.89,14l2048.6-106.75
						c35.23-1.84,66.95-16.23,90.95-38.7l-804.08-753.25C2045.41,973.15,1901.33,969.06,1808.6,1045.72z"/>
				</g>
				<path class="st6" d="M2804.59,3465.98H832.48c-79.62,0-144.16-64.54-144.16-144.16V2037.67c0-76.5,59.76-139.68,136.14-143.94
					l2048.2-114.16c85.76-4.78,156.64,66.01,151.97,151.77l-76.1,1398.3C2944.38,3406.11,2881.16,3465.98,2804.59,3465.98z"/>
				<g>
					<path class="st5" d="M1864.58,2691.11l1078.02-897.8c-21.03-10.03-44.83-15.15-69.94-13.75l-2048.2,114.16
						c-35.22,1.96-66.89,16.47-90.81,39.02l806.8,750.33C1628.04,2764.55,1772.13,2768.11,1864.58,2691.11z"/>
				</g>
			</g>
			<g>
				<defs>
					<path id="SVGID_1_" d="M796.31,1991.03c284.07,264.19,619.78,640.51,870.67,770.27c32.51,16.81,71.55,14.87,102.09-5.29
						c244.75-161.52,773.65-636.37,1255.78-1042.76V669.24H733.65L796.31,1991.03z"/>
				</defs>
				<clipPath id="SVGID_2_">
					<use xlink:href="#SVGID_1_"  style="overflow:visible;"/>
				</clipPath>
				<g class="st7">
					<path class="st8" d="M965.13,705.46c338.57,24.84,1102.85,35.02,1782.28,66.62c31.91,1.48,61.6,55.89,62.42,87.24l68.48,2605.3
						c0.93,35.29-27.33,64.67-63.28,65.75c-294.1,8.88-1505.16,41.16-1935.24-15.18c-26.17-3.43-45.5-25.67-44.93-51.58
						L893.8,763.65C894.6,726.97,927.87,702.73,965.13,705.46z"/>
					<path class="st9" d="M1045.39,820.11c293.66,13.37,1023.83,24.89,1627.67,46.96c50.05,1.83,46.75,95.86,47.47,125.28
						l59.2,2415.84c0.81,33.12-24.86,60.72-57.5,61.77c-266.98,8.59-1366.36,39.93-1756.72-12.59
						c-23.76-3.2-41.28-24.06-40.74-48.38l55.82-2534.21C981.34,840.36,1011.51,818.57,1045.39,820.11z"/>
					<g>
						<path class="st10" d="M2315.61,1593.24c0,54.47-8.35,104.07-25.04,148.83c-16.73,44.85-40.42,79.84-71.13,104.97
							c-30.8,25.22-66.68,37.45-107.69,36.63c-27.44-0.55-51.79-7.83-73.03-21.89c-21.29-14.08-36.63-32.39-45.99-54.91l-9-0.21
							c-40.6,48.78-92.54,72.62-155.99,71.36c-67.7-1.35-121.39-23.2-160.83-65.68c-39.6-42.65-59.46-100.32-59.46-172.9
							c0-82.77,26.08-148.44,78.04-196.8c51.68-48.11,118.78-70.19,200.97-66.44c32.53,1.48,68.25,6.29,107.11,14.41
							c38.71,8.08,70.48,17.08,95.38,26.98l-12.81,280.38c0,53.24,14.11,80.22,42.27,80.93c23.64,0.6,42.45-16.75,56.44-52.01
							c13.96-35.21,20.94-81.53,20.94-139.01c0-61.28-12.31-115.93-36.95-164.06c-24.72-48.24-59.59-85.91-104.74-113.01
							c-45.36-27.22-97.41-42.39-156.28-45.41c-76.75-3.94-143.92,8.77-201.31,38.28c-57.73,29.69-102.22,74.6-133.3,134.73
							c-31.18,60.33-46.8,130.96-46.8,211.74c0,108.77,28.96,192.84,86.66,251.94c57.35,58.77,139.88,88.79,246.95,90.3
							c40.23,0.57,84.25-3.34,132.03-11.7c47.53-8.31,94.1-20.73,139.69-37.19v110.05c-79.47,34.02-168.44,50.74-267.16,49.9
							c-145.53-1.23-260.5-41.46-343.78-121.16c-84-80.38-126.25-191.43-126.25-332.65c0-97.98,21.59-186.07,64.66-264.02
							c42.88-77.61,103.62-136.83,181.89-177.69c77.66-40.53,166.29-57.82,265.58-52.17c82.91,4.72,156.38,26.16,220.61,64.16
							c63.8,37.75,112.75,88.96,147.06,153.63C2298.55,1437.97,2315.61,1511.16,2315.61,1593.24z M1742.18,1646.04
							c0,82.21,33.01,124.15,98.71,125.82c34.2,0.87,60.15-10.74,77.92-34.8c17.73-24.01,28.47-63.51,32.24-118.53l7.34-127.5
							c-19.2-5.01-40.9-8-65.1-8.98c-47.45-1.91-84.52,11.74-111.1,41.02C1755.52,1552.43,1742.18,1593.44,1742.18,1646.04z"/>
					</g>
				</g>
			</g>
		</g>
		<g>
			<g>
				
					<ellipse transform="matrix(0.7071 -0.7071 0.7071 0.7071 314.4307 1443.524)" class="st11" cx="1899.7" cy="342.21" rx="293.51" ry="293.51"/>
				<g>
					<path class="st12" d="M1665.72,227.02c-0.41,0-0.82-0.09-1.2-0.29c-1.32-0.67-1.85-2.28-1.18-3.6
						c45.31-89.77,135.88-145.54,236.37-145.54c16.03,0,32.09,1.45,47.73,4.3c1.45,0.26,2.42,1.66,2.15,3.11
						c-0.27,1.45-1.66,2.43-3.11,2.15c-15.33-2.79-31.06-4.21-46.77-4.21c-98.45,0-187.19,54.64-231.59,142.59
						C1667.64,226.48,1666.7,227.02,1665.72,227.02z"/>
				</g>
				<circle class="st1" cx="1905.89" cy="348.39" r="240.16"/>
			</g>
			<g>
				<path class="st6" d="M1796.63,298.77L1796.63,298.77c8.39-23.91,29.34-41.08,54.09-41.37c32.69-0.39,59.53,28.71,59.53,65.01
					c0-36.3,27.15-66.05,61.08-66.46c26.35-0.32,49.11,17.12,58.34,42.1l0,0c35.37,90.17-119.42,169.28-119.42,169.28
					S1765.07,383.54,1796.63,298.77z"/>
			</g>
			<g>
				
					<ellipse transform="matrix(0.7071 -0.7071 0.7071 0.7071 547.7358 2187.6609)" class="st11" cx="2914.61" cy="432.65" rx="230.73" ry="230.73"/>
				<g>
					<path class="st12" d="M2730.68,342.1c-0.32,0-0.64-0.07-0.95-0.23c-1.04-0.52-1.45-1.79-0.93-2.83
						c35.62-70.57,106.82-114.41,185.81-114.41c12.6,0,25.23,1.14,37.52,3.38c1.14,0.21,1.9,1.3,1.69,2.45
						c-0.21,1.14-1.31,1.91-2.45,1.69c-12.05-2.2-24.42-3.31-36.77-3.31c-77.39,0-147.15,42.95-182.05,112.09
						C2732.19,341.68,2731.45,342.1,2730.68,342.1z"/>
				</g>
				
					<ellipse transform="matrix(0.7071 -0.7071 0.7071 0.7071 545.7229 2192.521)" class="st1" cx="2919.47" cy="437.51" rx="188.79" ry="188.79"/>
			</g>
			<g>
				<path class="st6" d="M2969.4,360.38c0,28.25-22.9,58.75-51.15,58.75c-28.25,0-51.15-30.5-51.15-58.75
					c0-28.25,22.9-48.29,51.15-48.29C2946.49,312.08,2969.4,332.13,2969.4,360.38z"/>
				<path class="st6" d="M2854.76,527.9h124.87c13.15,0,24.78-8.5,28.79-21.02l6.72-21c4.92-15.38-3.08-32.03-18.24-37.57
					c-50.82-18.58-103.37-16.2-157.2,1.71c-15.08,5.02-23.45,21.15-19.29,36.49l5.17,19.07
					C2829.16,518.75,2841.12,527.9,2854.76,527.9z"/>
			</g>
			<g>
				
					<ellipse transform="matrix(0.7071 -0.7071 0.7071 0.7071 -623.5508 673.2166)" class="st11" cx="500.87" cy="1089.3" rx="282.16" ry="282.16"/>
				<g>
					<path class="st12" d="M275.94,978.56c-0.39,0-0.79-0.09-1.16-0.28c-1.27-0.64-1.78-2.19-1.14-3.46
						c43.56-86.3,130.63-139.91,227.23-139.91c15.41,0,30.85,1.39,45.89,4.13c1.4,0.25,2.33,1.59,2.07,2.99
						c-0.26,1.4-1.6,2.34-2.99,2.07c-14.73-2.68-29.86-4.04-44.97-4.04c-94.65,0-179.95,52.53-222.63,137.08
						C277.78,978.04,276.88,978.56,275.94,978.56z"/>
				</g>
				
					<ellipse transform="matrix(0.7071 -0.7071 0.7071 0.7071 -626.0125 679.1602)" class="st1" cx="506.81" cy="1095.24" rx="230.87" ry="230.87"/>
			</g>
			<g>
				<path class="st6" d="M459.86,1020.84c0-5.28-4.28-9.57-9.57-9.57h-33.5c-5.28,0-9.57,4.28-9.57,9.57v152.8
					c0,5.28,4.28,9.57,9.57,9.57h33.5c5.28,0,9.57-4.28,9.57-9.57V1020.84z"/>
				<path class="st6" d="M578.65,1011.27h-34.58v-41.13c0-13.27-7-22.03-20.27-22.03h-0.85c-13.27,0-24.03,9.76-24.03,23.03
					l-11.45,40.95c-5.28,0-13.58,3.78-13.58,9.07v156.95c0,5.29,12.3,12.11,17.58,12.11h7.44h79.73c19.85,0,35.6-18.64,35.6-38.49
					v-104.21C614.25,1027.68,598.5,1011.27,578.65,1011.27z"/>
			</g>
			<g>
				
					<ellipse transform="matrix(0.7071 -0.7071 0.7071 0.7071 18.2616 754.9173)" class="st11" cx="920.4" cy="355.41" rx="216.3" ry="216.3"/>
				<g>
					<path class="st12" d="M747.96,270.52c-0.3,0-0.6-0.07-0.89-0.21c-0.97-0.49-1.36-1.68-0.87-2.65
						C779.6,201.5,846.34,160.41,920.4,160.41c11.81,0,23.65,1.07,35.18,3.17c1.07,0.19,1.78,1.22,1.59,2.29
						c-0.2,1.07-1.22,1.79-2.29,1.59c-11.29-2.06-22.89-3.1-34.47-3.1c-72.55,0-137.95,40.27-170.67,105.08
						C749.38,270.13,748.69,270.52,747.96,270.52z"/>
				</g>
				<circle class="st1" cx="924.95" cy="359.97" r="176.99"/>
			</g>
			<path class="st6" d="M865.8,288.32v143.91c0,9.24,7.82,15,14.58,10.76l120.51-75.65c7.52-4.72,7.52-18.08,0-22.34l-120.51-68.33
				C873.63,272.84,865.8,279.09,865.8,288.32z"/>
			<g>
				
					<ellipse transform="matrix(0.7071 -0.7071 0.7071 0.7071 143.5602 2580.0239)" class="st11" cx="3186.14" cy="1116.72" rx="255.71" ry="255.71"/>
				<g>
					<path class="st12" d="M2982.3,1016.36c-0.35,0-0.71-0.08-1.05-0.25c-1.15-0.58-1.61-1.98-1.03-3.13
						c39.48-78.21,118.38-126.79,205.93-126.79c13.97,0,27.96,1.26,41.59,3.74c1.27,0.23,2.11,1.44,1.88,2.71
						c-0.23,1.27-1.45,2.12-2.71,1.87c-13.35-2.43-27.06-3.67-40.75-3.67c-85.77,0-163.08,47.6-201.76,124.23
						C2983.97,1015.89,2983.15,1016.36,2982.3,1016.36z"/>
				</g>
				<circle class="st1" cx="3191.53" cy="1122.11" r="209.23"/>
			</g>
			<path class="st6" d="M3106.79,1074.52c0,33.13,38.57,111.93,65.82,163.47c11.35,21.47,41.25,22.91,52.65,2.49
				c27.47-49.23,66.62-125.28,66.62-158.73c0-51.61-41.74-94.88-92.98-96.64C3147.92,983.36,3106.79,1023.39,3106.79,1074.52z
				 M3149.34,1076.18c0-27.51,22.16-49,49.56-48c27.48,1,49.81,24.23,49.81,51.89c0,27.65-22.33,49.14-49.81,47.99
				C3171.49,1126.92,3149.34,1103.69,3149.34,1076.18z"/>
		</g>
		<g>
			<defs>
				<rect id="SVGID_3_" x="1107.05" y="2380.8" width="1485.58" height="1083.14"/>
			</defs>
			<clipPath id="SVGID_4_">
				<use xlink:href="#SVGID_3_"  style="overflow:visible;"/>
			</clipPath>
			<g class="st13">
				<g>
					<path class="st5" d="M1234.88,3145.96c-7.73-3.38-11.81-12.12-9.2-20.33c5.7-17.96,12.28-35.94,19.53-53.43
						c3.53-8.51,13.29-12.55,21.8-9.03c0.1,0.04,0.2,0.09,0.3,0.13c8.31,3.63,12.21,13.26,8.72,21.67
						c-6.89,16.62-13.13,33.7-18.55,50.76c-2.79,8.78-12.17,13.64-20.95,10.85C1235.96,3146.4,1235.41,3146.19,1234.88,3145.96z
						 M1294.06,3013.23c-0.6-0.26-1.19-0.56-1.77-0.9c-7.95-4.65-10.62-14.88-5.97-22.83c9.56-16.33,19.92-32.41,30.78-47.8
						c5.31-7.53,15.68-9.32,23.25-4.01c7.53,5.32,9.32,15.73,4.01,23.25c-10.32,14.63-20.16,29.9-29.25,45.42
						C1310.8,3013.74,1301.7,3016.57,1294.06,3013.23z M1380.99,2896.83c-1.7-0.74-3.31-1.79-4.74-3.13
						c-6.71-6.31-7.04-16.87-0.74-23.58c12.93-13.76,26.62-27.14,40.69-39.75c6.87-6.14,17.41-5.56,23.56,1.29
						c6.15,6.86,5.57,17.41-1.29,23.56c-13.36,11.97-26.36,24.67-38.64,37.74C1394.87,2898.25,1387.27,2899.58,1380.99,2896.83z
						 M1491.79,2802.78c-2.81-1.23-5.32-3.25-7.15-5.99c-5.13-7.65-3.09-18.01,4.55-23.15c15.69-10.53,32.03-20.51,48.55-29.65
						c8.06-4.45,18.2-1.54,22.67,6.52c4.46,8.06,1.54,18.21-6.52,22.67c-15.69,8.69-31.21,18.16-46.12,28.17
						C1502.86,2804.65,1496.84,2804.98,1491.79,2802.78z M1620.78,2735.79c-3.94-1.72-7.22-4.96-8.89-9.3
						c-3.31-8.6,0.98-18.25,9.58-21.56c17.59-6.77,35.73-12.88,53.89-18.16c8.85-2.58,18.1,2.51,20.67,11.36
						c2.57,8.85-2.52,18.1-11.37,20.68c-17.27,5.01-34.5,10.82-51.22,17.25C1629.18,2737.71,1624.66,2737.49,1620.78,2735.79z
						 M1761.36,2699.01c-5.11-2.23-8.98-6.97-9.84-12.89c-1.32-9.12,4.99-17.58,14.11-18.91c18.68-2.71,37.72-4.66,56.57-5.78
						c9.2-0.54,17.09,6.47,17.64,15.67c0.55,9.19-6.47,17.09-15.66,17.64c-17.92,1.07-36,2.91-53.75,5.49
						C1767.23,2700.69,1764.12,2700.22,1761.36,2699.01z M2337.38,2907.4c-2.12-0.93-4.07-2.3-5.71-4.13
						c-11.98-13.33-24.71-26.31-37.82-38.59c-6.72-6.29-7.08-16.85-0.78-23.57c6.29-6.73,16.85-7.08,23.58-0.78
						c13.81,12.93,27.22,26.6,39.84,40.64c6.16,6.85,5.6,17.4-1.25,23.56C2350.2,2909.03,2343.19,2909.93,2337.38,2907.4z
						 M1906.51,2694.3c-6.34-2.77-10.53-9.34-9.95-16.62c0.74-9.19,8.78-16.03,17.96-15.3c18.82,1.51,37.81,3.85,56.43,6.97
						c9.08,1.56,15.22,10.12,13.7,19.21c-1.52,9.08-10.12,15.22-19.21,13.7c-17.68-2.96-35.71-5.19-53.59-6.62
						C1909.96,2695.49,1908.16,2695.03,1906.51,2694.3z M2228.66,2810.98c-1.01-0.44-1.99-0.98-2.93-1.64
						c-14.67-10.31-29.98-20.13-45.5-29.18c-7.96-4.64-10.65-14.86-6.01-22.81c4.64-7.95,14.87-10.69,22.81-6.01
						c16.33,9.53,32.44,19.85,47.88,30.7c7.54,5.3,9.35,15.71,4.06,23.24C2244.33,2811.87,2235.78,2814.09,2228.66,2810.98z
						 M2049.07,2722.14c-7.71-3.37-11.8-12.09-9.21-20.3c2.77-8.79,12.14-13.66,20.93-10.89c17.99,5.68,35.97,12.21,53.45,19.42
						c0.11,0.04,0.22,0.09,0.33,0.14c8.29,3.62,12.2,13.23,8.74,21.64c-3.51,8.52-13.26,12.58-21.78,9.06
						c-16.6-6.84-33.69-13.04-50.78-18.44C2050.17,2722.58,2049.61,2722.37,2049.07,2722.14z"/>
					<path class="st5" d="M2407.49,3001.23c-3.01-1.32-5.67-3.53-7.52-6.54c-4.5-7.33-9.24-14.68-14.06-21.87
						c-5.14-7.64-3.11-18.01,4.54-23.15c7.64-5.14,18.02-3.12,23.15,4.54c5.08,7.55,10.05,15.29,14.8,23
						c4.82,7.85,2.37,18.12-5.47,22.95C2418.08,3003.14,2412.32,3003.34,2407.49,3001.23z"/>
				</g>
				<g>
					<path class="st5" d="M1397.45,3511.42c0.89,3.2,3.72,5.49,7.04,5.68l94.72,5.65c21.34,38.84,49.03,74.55,82.62,105.4
						l-17.06,93.28c-0.6,3.27,0.95,6.56,3.84,8.2l99.17,55.86c2.9,1.63,6.51,1.24,9-0.96l70.93-62.94
						c43.79,12.73,88.68,17.9,132.96,16.02l53.93,78.08c1.89,2.74,5.31,3.97,8.51,3.08l109.62-30.63c3.21-0.9,5.49-3.72,5.68-7.04
						l5.65-94.72c38.84-21.34,74.55-49.03,105.4-82.62l93.28,17.06c3.27,0.6,6.56-0.94,8.19-3.84l55.86-99.17
						c1.63-2.9,1.25-6.51-0.96-9l-62.94-70.93c12.73-43.79,17.9-88.68,16.02-132.96l78.08-53.93c2.73-1.89,3.97-5.31,3.08-8.51
						l-30.63-109.62c-0.89-3.2-3.72-5.49-7.04-5.69l-94.72-5.65c-21.34-38.84-49.03-74.55-82.62-105.4l17.06-93.28
						c0.6-3.27-0.94-6.56-3.84-8.2l-99.17-55.86c-2.9-1.63-6.51-1.25-9,0.96l-70.93,62.94c-43.79-12.73-88.68-17.9-132.96-16.02
						l-53.93-78.07c-1.89-2.74-5.31-3.97-8.51-3.08l-109.62,30.63c-3.2,0.89-5.49,3.72-5.69,7.04l-5.65,94.72
						c-38.84,21.34-74.55,49.03-105.4,82.62l-93.28-17.06c-3.27-0.6-6.56,0.94-8.19,3.84l-55.86,99.17c-1.63,2.9-1.25,6.51,0.96,9
						l62.94,70.93c-12.73,43.79-17.9,88.68-16.02,132.96l-78.07,53.93c-2.74,1.89-3.97,5.31-3.08,8.51L1397.45,3511.42z"/>
					<path class="st3" d="M1817.57,3426.95c-51.1-22.33-79.58-79.47-64.51-134.85c16.57-60.88,79.56-96.92,140.44-80.36
						c29.49,8.02,54.09,27.05,69.26,53.57c15.18,26.52,19.12,57.37,11.09,86.86c-16.57,60.88-79.56,96.92-140.44,80.36
						C1827.93,3431.04,1822.63,3429.16,1817.57,3426.95z M1898.76,3241.82c-3.95-1.72-8.04-3.17-12.27-4.32
						c-46.67-12.7-94.97,14.94-107.67,61.61c-12.7,46.67,14.92,94.99,61.61,107.68c46.67,12.7,94.97-14.94,107.67-61.61
						c6.15-22.61,3.13-46.26-8.5-66.6C1930.13,3262.04,1915.9,3249.31,1898.76,3241.82z"/>
					<path class="st3" d="M1753.54,3579.31c-8.78-3.84-17.41-8.14-25.87-12.9l0,0c-2.66-1.5-5.3-3.04-7.92-4.63
						c-12.89-7.81-25.13-16.64-36.55-26.35c-0.16-0.13-0.31-0.26-0.47-0.4c-0.44-0.38-0.88-0.75-1.32-1.14
						c-0.85-0.74-1.7-1.48-2.55-2.23c-2.22-1.97-2.82-5.08-1.69-7.66c0.27-0.63,0.65-1.22,1.13-1.76c2.44-2.76,6.66-3,9.42-0.56
						c14.19,12.58,29.83,23.71,46.49,33.09c82.73,46.61,179.91,44.37,258.04,2.65c43.46-23.2,81.03-58.61,106.95-104.63
						c4.55-8.07,8.65-16.31,12.31-24.68c24.62-56.34,29.07-118.92,12.3-178.93c-19.26-68.94-64.21-126.25-126.58-161.38
						c-128.81-72.53-292.48-26.76-364.99,101.97c-4.47,7.94-8.52,16.07-12.15,24.37c-15.7,35.94-23.36,74.92-22.3,114.16
						c0.03,1.01-0.17,1.98-0.56,2.85c-1,2.29-3.26,3.93-5.93,4c-3.69,0.09-6.76-2.8-6.85-6.49c-1.12-41.2,6.92-82.12,23.4-119.85
						c3.8-8.71,8.05-17.24,12.74-25.58c76.13-135.16,248.06-183.16,383.17-107.06c65.47,36.88,112.66,97.04,132.88,169.42
						c17.61,63,12.93,128.69-12.91,187.84c-3.84,8.79-8.15,17.44-12.92,25.91c-36.88,65.48-97.05,112.67-169.42,132.89
						C1878.4,3609.85,1812.7,3605.16,1753.54,3579.31z"/>
				</g>
			</g>
		</g>
	</g>
</g>
</svg>
