<?xml version="1.0" encoding="utf-8"?>
<!-- Generator: Adobe Illustrator 24.0.2, SVG Export Plug-In . SVG Version: 6.00 Build 0)  -->
<svg version="1.1" id="Layer_1" xmlns="http://www.w3.org/2000/svg" xmlns:xlink="http://www.w3.org/1999/xlink" x="0px" y="0px"
	 viewBox="0 0 200 200" style="enable-background:new 0 0 200 200;" xml:space="preserve">
<style type="text/css">
	.st0{fill:#96FF00;}
</style>
<g>
	<g>
		<polygon class="st0" points="162.8,36.3 162.8,36.3 147.4,27.4 123.7,13.7 100,0 76.3,13.7 52.6,27.4 37.2,36.3 13.4,50 13.4,50 
			13.4,77.4 13.4,104.8 13.4,150 13.4,150 37.2,163.7 37.2,91.1 37.2,63.7 76.3,41.1 100,27.4 123.7,41.1 162.8,63.7 162.8,91.1 
			162.8,163.7 186.6,150 186.6,104.8 186.6,77.4 186.6,50 		"/>
		<polygon class="st0" points="123.7,158.9 100,172.6 76.3,158.9 60.9,150 60.9,167.8 60.9,177.4 76.3,186.3 100,200 123.7,186.3 
			139.1,177.4 139.1,167.8 139.1,150 		"/>
		<polygon class="st0" points="128.4,71.2 100,54.8 71.6,71.2 60.9,77.4 60.9,122.6 71.6,128.8 100,145.2 128.4,128.8 139.1,122.6 
			139.1,77.4 		"/>
	</g>
</g>
</svg>
